
<svg width="31px" height="28px" viewBox="37 12 31 28" version="1.1" xmlns="http://www.w3.org/2000/svg" xmlns:xlink="http://www.w3.org/1999/xlink">
    <!-- Generator: Sketch 42 (36781) - http://www.bohemiancoding.com/sketch -->
    <desc>Created with Sketch.</desc>
    <defs></defs>
    <g id="Icon-Cart" stroke="none" stroke-width="1" fill="none" fill-rule="evenodd" transform="translate(38.499900, 13.500300)" stroke-linecap="round" stroke-linejoin="round">
        <path d="M4.1331,3.913 L6.7261,14.872 C6.7241,14.882 6.7191,14.891 6.7171,14.901 L6.0251,16.934 C5.9131,17.48 6.3341,17.987 6.8891,17.987 L24.7331,17.987" id="Stroke-1" stroke="#FFFFFF"></path>
        <path d="M27.848,3.913 L4.133,3.913 L4.745,0.838 C4.64,0.349 4.207,0 3.705,0 L0,0" id="Stroke-3" stroke="#FFFFFF"></path>
        <path d="M28.391,1.9312 L25.855,11.2472 C25.642,12.0292 24.979,12.6052 24.175,12.7062 L6.717,14.9012" id="Stroke-5" stroke="#FFFFFF"></path>
        <path d="M7.9349,20.8841 C6.8879,20.8841 6.0399,21.7291 6.0399,22.7711 C6.0399,23.8131 6.8879,24.6571 7.9349,24.6571 C8.9809,24.6571 9.8289,23.8131 9.8289,22.7711 C9.8289,21.7291 8.9809,20.8841 7.9349,20.8841 L7.9349,20.8841 Z" id="Stroke-7" stroke="#FFFFFF"></path>
        <path d="M22.8385,20.8841 C21.7915,20.8841 20.9435,21.7291 20.9435,22.7711 C20.9435,23.8131 21.7915,24.6571 22.8385,24.6571 C23.8845,24.6571 24.7335,23.8131 24.7335,22.7711 C24.7335,21.7291 23.8845,20.8841 22.8385,20.8841 L22.8385,20.8841 Z" id="Stroke-9" stroke="#FFFFFF"></path>
    </g>
</svg>
