<svg width="33" height="30" xmlns="http://www.w3.org/2000/svg" version="1.1">
 <g id="Layer_1">
  <title>Layer 1</title>
  <ellipse stroke="#000" fill="none" cx="7.05046" cy="27.43119" id="svg_20" rx="2.29358" ry="2.33945"/>
  <line fill="none" stroke="#000" x1="26.95872" y1="23.62385" x2="5.49083" y2="23.53211" id="svg_23"/>
  <line fill="none" stroke="#000" x1="5.67431" y1="20.22936" x2="5.67431" y2="23.80734" id="svg_24"/>
  <line fill="none" stroke="#000" x1="26.68349" y1="15.6422" x2="5.03211" y2="20.13761" id="svg_25"/>
  <line fill="none" stroke="#000" x1="27.05046" y1="7.93578" x2="26.95872" y2="15.18349" id="svg_26"/>
  <line fill="none" stroke="#000" x1="5.49083" y1="19.58716" x2="5.94954" y2="7.84404" id="svg_27"/>
  <line fill="none" stroke="#000" x1="27.50917" y1="8.3945" x2="5.49083" y2="7.84404" id="svg_28"/>
  <line fill="none" stroke="#000" x1="0.72018" y1="4.90826" x2="4.48165" y2="3.07339" id="svg_29"/>
  <line fill="none" stroke="#000" x1="5.8578" y1="7.56881" x2="4.20642" y2="2.79817" id="svg_30"/>
  <line fill="none" stroke="#396849" x1="1.08716" y1="4.44954" x2="4.48165" y2="3.07339" id="svg_31"/>
  <line fill="none" stroke="#396849" x1="5.39908" y1="23.62385" x2="5.8578" y2="7.66055" id="svg_32"/>
  <line fill="none" stroke="#396849" x1="4.11468" y1="3.16514" x2="5.94954" y2="7.66055" id="svg_33"/>
  <line fill="none" stroke="#396849" x1="5.67431" y1="20.22936" x2="27.41743" y2="15.36697" id="svg_34"/>
  <line fill="none" stroke="#396849" x1="27.05046" y1="7.84404" x2="26.95872" y2="15.36697" id="svg_35"/>
  <line fill="none" stroke="#396849" x1="5.94954" y1="7.66055" x2="27.05046" y2="8.11927" id="svg_36"/>
  <line fill="none" stroke="#396849" x1="5.94954" y1="23.44037" x2="26.86697" y2="23.62385" id="svg_37"/>
  <line fill="none" x1="11.72936" y1="16.92661" x2="7.96789" y2="10.68807" id="svg_40" stroke="#396849"/>
  <line fill="none" x1="17.69266" y1="9.0367" x2="11.72936" y2="17.01835" id="svg_41" stroke="#396849"/>
  <line stroke-linecap="undefined" stroke-linejoin="undefined" id="svg_2" y2="2.92857" x2="4.35714" y1="4.5" x1="1.07143" stroke="#559E84" fill="none"/>
  <line stroke="#559E84" stroke-linecap="undefined" stroke-linejoin="undefined" id="svg_3" y2="23.5" x2="27.35714" y1="23.5" x1="4.35714" fill="none"/>
  <ellipse stroke="#000000" ry="3.14286" rx="3.5" id="svg_6" cy="27.21429" cx="7.28571" fill="#529D94"/>
  <ellipse stroke="#000000" ry="2.71429" rx="2.78571" id="svg_7" cy="26.92857" cx="22.28571" fill="#306856"/>
  <path d="m7.78571,9.78571c0,0.14286 -0.03282,0.28954 0,0.42857c0.07339,0.31089 0.23105,0.43945 0.28571,0.57143c0.07731,0.18665 0.1847,0.1847 0.28571,0.28571c0.10102,0.10102 0.14286,0.28571 0.28572,0.42857c0.14286,0.14286 0.15373,0.23104 0.28571,0.28571c0.18665,0.07731 0.1847,0.1847 0.28571,0.28571c0.10102,0.10102 0.16758,0.26468 0.28571,0.42857c0.18678,0.25914 0.20945,0.29608 0.28571,0.57143c0.22235,0.80277 0.53003,0.86327 0.57143,1c0.14926,0.49298 0.42857,0.57143 0.42857,0.85714c0,0.14286 -0.10934,0.59318 0,0.85714c0.07731,0.18665 0.15373,0.3739 0.28571,0.42857c0.18665,0.07731 0.35126,0.24192 0.42857,0.42857c0.05467,0.13198 0.14286,0.14286 0.14286,0.28572c0,0.14286 0.04184,0.1847 0.14286,0.28571c0.10102,0.10102 0.14286,-0.14286 0.14286,-0.42857c0,-0.14286 0.13148,-0.59542 0.71429,-0.85714c0.70179,-0.31515 0.69325,-0.4533 0.85714,-0.57143c0.25914,-0.18678 0.32756,-0.32756 0.42857,-0.42857c0.20203,-0.20203 0.23104,-0.43945 0.28571,-0.57143c0.15463,-0.3733 0.57143,-0.57143 0.71429,-0.71428c0.28572,-0.28571 0.35347,-0.30705 0.42857,-0.42857c0.16794,-0.27173 0.3739,-0.43945 0.42857,-0.57143c0.07731,-0.18665 0.49411,-0.38478 0.57143,-0.57143c0.05467,-0.13198 0.16758,-0.40753 0.28571,-0.57143c0.18678,-0.25914 0.42857,-0.57143 0.42857,-0.71429c0,-0.14286 0.2084,-0.38478 0.28572,-0.57143c0.05467,-0.13198 0.06554,-0.24192 0.14286,-0.42857c0.05467,-0.13198 0.02134,-0.21061 0.14286,-0.28571c0.27173,-0.16794 0.17638,-0.45032 0.28572,-0.71429c0.07731,-0.18665 0.38773,-0.45881 0.71428,-0.85714c0.12809,-0.15624 0.42857,-0.28571 0.71429,-0.57143c0.14286,-0.14286 0.30746,-0.31923 0.57143,-0.42857c0.18665,-0.07731 0.26879,-0.3129 0.71428,-0.57143c0.27629,-0.16033 0.38478,-0.35126 0.57143,-0.42857c0.13198,-0.05467 0.47042,-0.1847 0.57143,-0.28571c0.10102,-0.10102 0.28571,-0.14286 0.42857,-0.28571c0.14286,-0.14286 0.42857,-0.28571 0.57143,-0.42857c0.14286,-0.14286 0.28571,-0.14286 0.42857,-0.28571l0.28572,-0.28571l0.14286,-0.14286" id="svg_10" stroke="#153723" fill="none"/>
 </g>

</svg>